<mxfile host="app.diagrams.net" modified="2024-01-08T06:37:45.854Z" agent="Mozilla/5.0 (Windows NT 10.0; Win64; x64) AppleWebKit/537.36 (KHTML, like Gecko) Chrome/120.0.0.0 Safari/537.36" etag="h1icf4gXlHvAH4Ntbcux" version="22.1.17" type="device">
  <diagram name="Page-1" id="HRm7s-MgInDABBCGNqdH">
    <mxGraphModel dx="1050" dy="617" grid="1" gridSize="10" guides="1" tooltips="1" connect="1" arrows="1" fold="1" page="1" pageScale="1" pageWidth="850" pageHeight="1100" math="0" shadow="0">
      <root>
        <mxCell id="0" />
        <mxCell id="1" parent="0" />
        <mxCell id="qWssjnI9ClxZ43994i2v-5" style="edgeStyle=orthogonalEdgeStyle;rounded=0;orthogonalLoop=1;jettySize=auto;html=1;exitX=0.5;exitY=1;exitDx=0;exitDy=0;entryX=0.5;entryY=0;entryDx=0;entryDy=0;" edge="1" parent="1" source="qWssjnI9ClxZ43994i2v-1" target="qWssjnI9ClxZ43994i2v-3">
          <mxGeometry relative="1" as="geometry" />
        </mxCell>
        <mxCell id="qWssjnI9ClxZ43994i2v-1" value="Initialize System parameters in GUI" style="rounded=1;whiteSpace=wrap;html=1;" vertex="1" parent="1">
          <mxGeometry x="120" y="160" width="120" height="60" as="geometry" />
        </mxCell>
        <mxCell id="qWssjnI9ClxZ43994i2v-4" style="edgeStyle=orthogonalEdgeStyle;rounded=0;orthogonalLoop=1;jettySize=auto;html=1;exitX=0.5;exitY=1;exitDx=0;exitDy=0;entryX=0.5;entryY=0;entryDx=0;entryDy=0;" edge="1" parent="1" source="qWssjnI9ClxZ43994i2v-2" target="qWssjnI9ClxZ43994i2v-1">
          <mxGeometry relative="1" as="geometry" />
        </mxCell>
        <mxCell id="qWssjnI9ClxZ43994i2v-2" value="GUI Start" style="ellipse;whiteSpace=wrap;html=1;aspect=fixed;" vertex="1" parent="1">
          <mxGeometry x="140" y="20" width="80" height="80" as="geometry" />
        </mxCell>
        <mxCell id="qWssjnI9ClxZ43994i2v-7" style="edgeStyle=orthogonalEdgeStyle;rounded=0;orthogonalLoop=1;jettySize=auto;html=1;exitX=0.5;exitY=1;exitDx=0;exitDy=0;entryX=0.5;entryY=0;entryDx=0;entryDy=0;" edge="1" parent="1" source="qWssjnI9ClxZ43994i2v-3" target="qWssjnI9ClxZ43994i2v-6">
          <mxGeometry relative="1" as="geometry" />
        </mxCell>
        <mxCell id="qWssjnI9ClxZ43994i2v-3" value="Initialize The Controller Parameters" style="rounded=1;whiteSpace=wrap;html=1;" vertex="1" parent="1">
          <mxGeometry x="120" y="280" width="120" height="60" as="geometry" />
        </mxCell>
        <mxCell id="qWssjnI9ClxZ43994i2v-11" style="edgeStyle=orthogonalEdgeStyle;rounded=0;orthogonalLoop=1;jettySize=auto;html=1;exitX=1;exitY=0.5;exitDx=0;exitDy=0;entryX=0;entryY=0.5;entryDx=0;entryDy=0;" edge="1" parent="1" source="qWssjnI9ClxZ43994i2v-6" target="qWssjnI9ClxZ43994i2v-8">
          <mxGeometry relative="1" as="geometry" />
        </mxCell>
        <mxCell id="qWssjnI9ClxZ43994i2v-13" style="edgeStyle=orthogonalEdgeStyle;rounded=0;orthogonalLoop=1;jettySize=auto;html=1;exitX=1;exitY=0.5;exitDx=0;exitDy=0;entryX=0;entryY=0.5;entryDx=0;entryDy=0;" edge="1" parent="1" source="qWssjnI9ClxZ43994i2v-6" target="qWssjnI9ClxZ43994i2v-12">
          <mxGeometry relative="1" as="geometry" />
        </mxCell>
        <mxCell id="qWssjnI9ClxZ43994i2v-6" value="System Start" style="rounded=1;whiteSpace=wrap;html=1;" vertex="1" parent="1">
          <mxGeometry x="120" y="400" width="120" height="60" as="geometry" />
        </mxCell>
        <mxCell id="qWssjnI9ClxZ43994i2v-8" value="Control Algorithm" style="swimlane;whiteSpace=wrap;html=1;" vertex="1" parent="1">
          <mxGeometry x="350" y="450" width="200" height="200" as="geometry" />
        </mxCell>
        <mxCell id="qWssjnI9ClxZ43994i2v-9" value="Swing Up Logic" style="rounded=1;whiteSpace=wrap;html=1;" vertex="1" parent="qWssjnI9ClxZ43994i2v-8">
          <mxGeometry x="40" y="40" width="120" height="60" as="geometry" />
        </mxCell>
        <mxCell id="qWssjnI9ClxZ43994i2v-10" value="Stability Controller" style="rounded=1;whiteSpace=wrap;html=1;" vertex="1" parent="qWssjnI9ClxZ43994i2v-8">
          <mxGeometry x="40" y="120" width="120" height="60" as="geometry" />
        </mxCell>
        <mxCell id="qWssjnI9ClxZ43994i2v-12" value="Visualization" style="swimlane;whiteSpace=wrap;html=1;" vertex="1" parent="1">
          <mxGeometry x="350" y="240" width="200" height="200" as="geometry" />
        </mxCell>
        <mxCell id="qWssjnI9ClxZ43994i2v-14" value="Display Theta, Alpha, and their corresponding rate of change together with the control input" style="rounded=1;whiteSpace=wrap;html=1;" vertex="1" parent="qWssjnI9ClxZ43994i2v-12">
          <mxGeometry x="40" y="60" width="120" height="100" as="geometry" />
        </mxCell>
        <mxCell id="qWssjnI9ClxZ43994i2v-17" style="edgeStyle=orthogonalEdgeStyle;rounded=0;orthogonalLoop=1;jettySize=auto;html=1;exitX=0;exitY=0.75;exitDx=0;exitDy=0;entryX=1;entryY=0.75;entryDx=0;entryDy=0;" edge="1" parent="1" source="qWssjnI9ClxZ43994i2v-15" target="qWssjnI9ClxZ43994i2v-8">
          <mxGeometry relative="1" as="geometry" />
        </mxCell>
        <mxCell id="qWssjnI9ClxZ43994i2v-18" style="edgeStyle=orthogonalEdgeStyle;rounded=0;orthogonalLoop=1;jettySize=auto;html=1;exitX=0;exitY=0.25;exitDx=0;exitDy=0;entryX=1;entryY=0.5;entryDx=0;entryDy=0;" edge="1" parent="1" source="qWssjnI9ClxZ43994i2v-15" target="qWssjnI9ClxZ43994i2v-12">
          <mxGeometry relative="1" as="geometry" />
        </mxCell>
        <mxCell id="qWssjnI9ClxZ43994i2v-21" style="edgeStyle=orthogonalEdgeStyle;rounded=0;orthogonalLoop=1;jettySize=auto;html=1;exitX=1;exitY=0.5;exitDx=0;exitDy=0;entryX=0;entryY=0.5;entryDx=0;entryDy=0;" edge="1" parent="1" source="qWssjnI9ClxZ43994i2v-15" target="qWssjnI9ClxZ43994i2v-20">
          <mxGeometry relative="1" as="geometry" />
        </mxCell>
        <mxCell id="qWssjnI9ClxZ43994i2v-15" value="User Interaction" style="swimlane;whiteSpace=wrap;html=1;" vertex="1" parent="1">
          <mxGeometry x="640" y="350" width="200" height="200" as="geometry" />
        </mxCell>
        <mxCell id="qWssjnI9ClxZ43994i2v-16" value="ability to tune parameters, apply disturbance, and stop the system" style="rounded=1;whiteSpace=wrap;html=1;" vertex="1" parent="qWssjnI9ClxZ43994i2v-15">
          <mxGeometry x="40" y="70" width="120" height="60" as="geometry" />
        </mxCell>
        <mxCell id="qWssjnI9ClxZ43994i2v-20" value="System Stop" style="rounded=1;whiteSpace=wrap;html=1;" vertex="1" parent="1">
          <mxGeometry x="930" y="420" width="120" height="60" as="geometry" />
        </mxCell>
      </root>
    </mxGraphModel>
  </diagram>
</mxfile>
